<svg width="24" height="24" viewBox="0 0 24 24" fill="none" xmlns="http://www.w3.org/2000/svg">
<g opacity="0.2">
<path d="M21 17.25V19.5C21 19.6989 20.921 19.8897 20.7803 20.0303C20.6397 20.171 20.4489 20.25 20.25 20.25H18C17.8011 20.25 17.6103 20.171 17.4697 20.0303C17.329 19.8897 17.25 19.6989 17.25 19.5V17.25H21Z" fill="#5A42E6"/>
</g>
<g opacity="0.2">
<path d="M6.75 17.25V19.5C6.75 19.6989 6.67098 19.8897 6.53033 20.0303C6.38968 20.171 6.19891 20.25 6 20.25H3.75C3.55109 20.25 3.36032 20.171 3.21967 20.0303C3.07902 19.8897 3 19.6989 3 19.5V17.25H6.75Z" fill="#5A42E6"/>
</g>
<g opacity="0.2">
<path d="M21 11.25L18.198 4.9454C18.139 4.81282 18.0429 4.70018 17.9213 4.62113C17.7996 4.54208 17.6577 4.5 17.5126 4.5H6.48741C6.34233 4.5 6.20037 4.54208 6.07872 4.62113C5.95708 4.70018 5.86097 4.81282 5.80205 4.9454L3 11.25H21Z" fill="#5A42E6"/>
</g>
<path d="M22.5 10.5H21.4874L18.8833 4.64072C18.7653 4.3757 18.573 4.15055 18.3298 3.99248C18.0865 3.83441 17.8027 3.75019 17.5126 3.75H6.48743C6.19731 3.75019 5.91346 3.83442 5.6702 3.99251C5.42694 4.1506 5.23469 4.37577 5.1167 4.64081L2.51259 10.5H1.5C1.30109 10.5 1.11032 10.579 0.96967 10.7197C0.829018 10.8603 0.75 11.0511 0.75 11.25C0.75 11.4489 0.829018 11.6397 0.96967 11.7803C1.11032 11.921 1.30109 12 1.5 12H2.25V19.5C2.25045 19.8977 2.40864 20.279 2.68984 20.5602C2.97105 20.8414 3.35231 20.9995 3.75 21H6C6.39769 20.9995 6.77895 20.8414 7.06016 20.5602C7.34136 20.279 7.49955 19.8977 7.5 19.5V18H16.5V19.5C16.5005 19.8977 16.6586 20.279 16.9398 20.5602C17.221 20.8414 17.6023 20.9995 18 21H20.25C20.6477 20.9995 21.029 20.8414 21.3102 20.5602C21.5914 20.279 21.7495 19.8977 21.75 19.5V12H22.5C22.6989 12 22.8897 11.921 23.0303 11.7803C23.171 11.6397 23.25 11.4489 23.25 11.25C23.25 11.0511 23.171 10.8603 23.0303 10.7197C22.8897 10.579 22.6989 10.5 22.5 10.5ZM6.48743 5.25H17.5126L19.8459 10.5H4.15409L6.48743 5.25ZM6 19.5H3.75V18H6V19.5ZM18 19.5V18H20.25V19.5H18ZM20.25 16.5H3.75V12H20.25V16.5Z" fill="#5A42E6"/>
<path d="M6 15H7.5C7.69891 15 7.88968 14.921 8.03033 14.7803C8.17098 14.6397 8.25 14.4489 8.25 14.25C8.25 14.0511 8.17098 13.8603 8.03033 13.7197C7.88968 13.579 7.69891 13.5 7.5 13.5H6C5.80109 13.5 5.61032 13.579 5.46967 13.7197C5.32902 13.8603 5.25 14.0511 5.25 14.25C5.25 14.4489 5.32902 14.6397 5.46967 14.7803C5.61032 14.921 5.80109 15 6 15Z" fill="#5A42E6"/>
<path d="M16.5 15H18C18.1989 15 18.3897 14.921 18.5303 14.7803C18.671 14.6397 18.75 14.4489 18.75 14.25C18.75 14.0511 18.671 13.8603 18.5303 13.7197C18.3897 13.579 18.1989 13.5 18 13.5H16.5C16.3011 13.5 16.1103 13.579 15.9697 13.7197C15.829 13.8603 15.75 14.0511 15.75 14.25C15.75 14.4489 15.829 14.6397 15.9697 14.7803C16.1103 14.921 16.3011 15 16.5 15Z" fill="#5A42E6"/>
</svg>
