<svg width="24" height="18" viewBox="0 0 24 18" fill="none" xmlns="http://www.w3.org/2000/svg">
<g clipPath="url(#clip0_245_136)">
<path d="M2.75 0.25H21.25C22.6289 0.25 23.75 1.37107 23.75 2.75V15.25C23.75 16.6289 22.6289 17.75 21.25 17.75H2.75C1.37107 17.75 0.25 16.6289 0.25 15.25V2.75C0.25 1.37107 1.37107 0.25 2.75 0.25ZM10.25 6.5C10.25 4.98393 9.01607 3.75 7.5 3.75C5.98393 3.75 4.75 4.98393 4.75 6.5C4.75 8.01607 5.98393 9.25 7.5 9.25C9.01607 9.25 10.25 8.01607 10.25 6.5ZM11.25 14.25C11.8021 14.25 12.25 13.8021 12.25 13.25V12.75C12.25 11.0949 10.9051 9.75 9.25 9.75H5.75C4.09493 9.75 2.75 11.0949 2.75 12.75V13.25C2.75 13.8021 3.19793 14.25 3.75 14.25H11.25ZM14.75 14.25H20.25C20.8021 14.25 21.25 13.8021 21.25 13.25C21.25 12.6979 20.8021 12.25 20.25 12.25H14.75C14.1979 12.25 13.75 12.6979 13.75 13.25C13.75 13.8021 14.1979 14.25 14.75 14.25ZM14.75 10.25H20.25C20.8021 10.25 21.25 9.80207 21.25 9.25C21.25 8.69793 20.8021 8.25 20.25 8.25H14.75C14.1979 8.25 13.75 8.69793 13.75 9.25C13.75 9.80207 14.1979 10.25 14.75 10.25ZM14.75 6.25H20.25C20.8021 6.25 21.25 5.80207 21.25 5.25C21.25 4.69793 20.8021 4.25 20.25 4.25H14.75C14.1979 4.25 13.75 4.69793 13.75 5.25C13.75 5.80207 14.1979 6.25 14.75 6.25Z" fill="#C5BDF6" stroke="#5A42E6" strokeWidth="0.5"/>
<rect x="2" y="3" width="11" height="12" fill="#C5BDF6"/>
<rect x="12" y="12" width="10" height="3" fill="#C5BDF6"/>
<ellipse cx="6.80039" cy="8.93845" rx="3.4" ry="3.4" fill="white"/>
<path d="M6.7988 5.93848C5.14196 5.93848 3.79883 7.28161 3.79883 8.93845C3.79883 10.5953 5.14196 11.9385 6.7988 11.9385C8.45565 11.9385 9.79883 10.5953 9.79883 8.93845C9.79697 7.28237 8.45493 5.94034 6.7988 5.93848ZM6.7988 6.53849C7.78724 6.53514 8.67537 7.1417 9.03199 8.0635C8.33024 7.74764 7.56834 7.58774 6.7988 7.59472C6.02932 7.58774 5.26742 7.74764 4.56567 8.0635C4.92229 7.1417 5.81042 6.53514 6.7988 6.53849ZM6.30475 11.287C5.26034 11.064 4.48783 10.1794 4.40763 9.11439C5.30351 9.11439 6.30475 10.3072 6.30475 11.287ZM6.7988 9.38845C6.55029 9.38845 6.3488 9.18701 6.3488 8.93845C6.3488 8.68994 6.55029 8.48845 6.7988 8.48845C7.04737 8.48845 7.2488 8.68994 7.2488 8.93845C7.2488 9.18701 7.04737 9.38845 6.7988 9.38845ZM7.29291 11.287C7.29291 10.3072 8.29415 9.11439 9.19008 9.11439C9.10983 10.1794 8.33733 11.064 7.29291 11.287Z" fill="#5A42E6"/>
<path d="M14.2617 12.5149C14.2617 12.4856 14.3496 12.4615 14.457 12.4615H15.2598C15.3672 12.4615 15.4551 12.4856 15.4551 12.5149V14.8082C15.4551 14.8375 15.3672 14.8615 15.2598 14.8615H14.457C14.3496 14.8615 14.2617 14.8375 14.2617 14.8082V12.5149Z" fill="white"/>
<path d="M14.7617 14.3615V12.9615H14.9551V14.3615H14.7617Z" fill="white" stroke="#5A42E6"/>
<path d="M16.9551 12.5149C16.9551 12.4856 17.043 12.4615 17.1504 12.4615H17.464C17.5714 12.4615 17.6593 12.4856 17.6593 12.5149V14.8082C17.6593 14.8375 17.5714 14.8615 17.464 14.8615H17.1504C17.043 14.8615 16.9551 14.8375 16.9551 14.8082V12.5149Z" fill="white"/>
<mask id="path-9-inside-1_245_136" fill="white">
<path d="M16.9551 12.5149C16.9551 12.4856 17.043 12.4615 17.1504 12.4615H17.464C17.5714 12.4615 17.6593 12.4856 17.6593 12.5149V14.8082C17.6593 14.8375 17.5714 14.8615 17.464 14.8615H17.1504C17.043 14.8615 16.9551 14.8375 16.9551 14.8082V12.5149Z"/>
</mask>
<path d="M16.9551 12.5149C16.9551 12.4856 17.043 12.4615 17.1504 12.4615H17.464C17.5714 12.4615 17.6593 12.4856 17.6593 12.5149V14.8082C17.6593 14.8375 17.5714 14.8615 17.464 14.8615H17.1504C17.043 14.8615 16.9551 14.8375 16.9551 14.8082V12.5149Z" fill="white"/>
<path d="M17.9551 12.5149C17.9551 13.0395 17.5764 13.2935 17.5116 13.3352C17.4002 13.4068 17.305 13.4339 17.2761 13.4418C17.204 13.4615 17.1602 13.4615 17.1504 13.4615V11.4615C17.0331 11.4615 16.8917 11.4736 16.7488 11.5126C16.6845 11.5302 16.5606 11.5688 16.4294 11.6532C16.3447 11.7077 15.9551 11.9757 15.9551 12.5149H17.9551ZM17.1504 13.4615H17.464V11.4615H17.1504V13.4615ZM17.464 13.4615C17.4542 13.4615 17.4104 13.4615 17.3383 13.4418C17.3094 13.4339 17.2142 13.4068 17.1029 13.3352C17.038 13.2935 16.6593 13.0395 16.6593 12.5149H18.6593C18.6593 11.9757 18.2697 11.7077 18.185 11.6532C18.0538 11.5688 17.9299 11.5302 17.8656 11.5126C17.7227 11.4736 17.5813 11.4615 17.464 11.4615V13.4615ZM16.6593 12.5149V14.8082H18.6593V12.5149H16.6593ZM16.6593 14.8082C16.6593 14.2836 17.038 14.0296 17.1029 13.9879C17.2142 13.9162 17.3094 13.8891 17.3383 13.8812C17.4104 13.8615 17.4542 13.8615 17.464 13.8615V15.8615C17.5813 15.8615 17.7227 15.8495 17.8656 15.8105C17.9299 15.7929 18.0538 15.7543 18.185 15.6699C18.2697 15.6154 18.6593 15.3474 18.6593 14.8082H16.6593ZM17.464 13.8615H17.1504V15.8615H17.464V13.8615ZM17.1504 13.8615C17.1602 13.8615 17.204 13.8615 17.2761 13.8812C17.305 13.8891 17.4002 13.9162 17.5116 13.9879C17.5764 14.0296 17.9551 14.2836 17.9551 14.8082H15.9551C15.9551 15.3474 16.3447 15.6154 16.4294 15.6699C16.5606 15.7543 16.6845 15.7929 16.7488 15.8105C16.8917 15.8495 17.0331 15.8615 17.1504 15.8615V13.8615ZM17.9551 14.8082V12.5149H15.9551V14.8082H17.9551Z" fill="#5A42E6" mask="url(#path-9-inside-1_245_136)"/>
<path d="M19.1602 12.5149C19.1602 12.4856 19.248 12.4615 19.3555 12.4615H20.4434C20.5508 12.4615 20.6387 12.4856 20.6387 12.5149V14.8082C20.6387 14.8375 20.5508 14.8615 20.4434 14.8615H19.3555C19.248 14.8615 19.1602 14.8375 19.1602 14.8082V12.5149Z" fill="white"/>
<path d="M19.6602 14.3615V12.9615H20.1387V14.3615H19.6602Z" fill="white" stroke="#5A42E6"/>
<path d="M5.15976 2.90553L4.92988 2.47353H4.79411V2.90553H4.60742V1.81164H5.02708C5.23845 1.81164 5.36959 1.95821 5.36959 2.14336C5.36959 2.29919 5.27548 2.41799 5.12274 2.45501L5.36959 2.90553H5.15976ZM4.79411 2.30999H4.99314C5.10731 2.30999 5.18136 2.24364 5.18136 2.14336C5.18136 2.04153 5.10731 1.97519 4.99314 1.97519H4.79411V2.30999Z" fill="#5A42E6"/>
<path d="M5.65112 2.4473H6.01986C6.01677 2.35936 5.95814 2.28067 5.83472 2.28067C5.72209 2.28067 5.65729 2.36707 5.65112 2.4473ZM6.03992 2.64324L6.19112 2.69107C6.151 2.82221 6.0322 2.92867 5.85169 2.92867C5.64803 2.92867 5.46752 2.78056 5.46752 2.52599C5.46752 2.28839 5.6434 2.13101 5.83317 2.13101C6.0646 2.13101 6.20037 2.28376 6.20037 2.52136C6.20037 2.55067 6.19729 2.57536 6.19574 2.57844H5.64649C5.65112 2.69261 5.7406 2.77439 5.85169 2.77439C5.95969 2.77439 6.01523 2.7173 6.03992 2.64324Z" fill="#5A42E6"/>
<path d="M6.3174 2.94719L6.48249 2.90399C6.49483 2.99656 6.56734 3.06599 6.67072 3.06599C6.81266 3.06599 6.88363 2.99347 6.88363 2.84073V2.76204C6.85123 2.82067 6.77563 2.87159 6.66609 2.87159C6.46552 2.87159 6.31894 2.7173 6.31894 2.50593C6.31894 2.30536 6.45934 2.14027 6.66609 2.14027C6.78334 2.14027 6.85586 2.1881 6.88826 2.24981V2.15416H7.06106V2.83456C7.06106 3.03513 6.95769 3.22181 6.67534 3.22181C6.47632 3.22181 6.33746 3.09839 6.3174 2.94719ZM6.6954 2.71884C6.80957 2.71884 6.88826 2.63553 6.88826 2.50593C6.88826 2.37787 6.80649 2.29456 6.6954 2.29456C6.58123 2.29456 6.49946 2.37787 6.49946 2.50593C6.49946 2.63707 6.57814 2.71884 6.6954 2.71884Z" fill="#5A42E6"/>
<path d="M7.45737 2.90553H7.27994V2.15416H7.45737V2.90553ZM7.25217 1.89033C7.25217 1.82553 7.30462 1.77307 7.36788 1.77307C7.43268 1.77307 7.48514 1.82553 7.48514 1.89033C7.48514 1.95513 7.43268 2.00604 7.36788 2.00604C7.30462 2.00604 7.25217 1.95513 7.25217 1.89033Z" fill="#5A42E6"/>
<path d="M7.62191 2.70187L7.77774 2.65867C7.78391 2.72656 7.83483 2.78673 7.93048 2.78673C8.00454 2.78673 8.04311 2.74661 8.04311 2.70033C8.04311 2.66021 8.01534 2.62936 7.95517 2.61701L7.84408 2.59233C7.7114 2.56301 7.64197 2.47661 7.64197 2.37324C7.64197 2.2421 7.76231 2.13101 7.91814 2.13101C8.12797 2.13101 8.19585 2.26679 8.2082 2.34084L8.057 2.38404C8.05082 2.34084 8.01842 2.27141 7.91814 2.27141C7.85488 2.27141 7.81014 2.31153 7.81014 2.35781C7.81014 2.39793 7.83945 2.42724 7.88574 2.4365L7.99991 2.45964C8.14185 2.4905 8.21591 2.5769 8.21591 2.68799C8.21591 2.80216 8.12334 2.92867 7.93202 2.92867C7.71448 2.92867 7.63117 2.78673 7.62191 2.70187Z" fill="#5A42E6"/>
<path d="M8.62019 1.92427V2.15416H8.77602V2.31307H8.62019V2.66176C8.62019 2.7281 8.6495 2.75587 8.71584 2.75587C8.74053 2.75587 8.76984 2.75124 8.77756 2.7497V2.89781C8.76676 2.90244 8.73282 2.91479 8.66802 2.91479C8.52916 2.91479 8.44276 2.83147 8.44276 2.69107V2.31307H8.3039V2.15416H8.34247C8.4227 2.15416 8.45819 2.10324 8.45819 2.0369V1.92427H8.62019Z" fill="#5A42E6"/>
<path d="M9.38606 2.14953V2.33159C9.366 2.3285 9.34594 2.32696 9.32743 2.32696C9.18857 2.32696 9.12532 2.40719 9.12532 2.54759V2.90553H8.94634V2.15416H9.12069V2.2745C9.15617 2.19273 9.23949 2.1449 9.33823 2.1449C9.35983 2.1449 9.37834 2.14799 9.38606 2.14953Z" fill="#5A42E6"/>
<path d="M9.49068 2.70187C9.49068 2.56764 9.58943 2.49359 9.71748 2.47507L9.91034 2.44576C9.95354 2.43959 9.96588 2.41799 9.96588 2.39176C9.96588 2.3285 9.92268 2.27759 9.82394 2.27759C9.72983 2.27759 9.67737 2.33776 9.66965 2.41336L9.50611 2.37633C9.52 2.24673 9.63726 2.13101 9.8224 2.13101C10.0538 2.13101 10.1418 2.26216 10.1418 2.41181V2.78519C10.1418 2.85307 10.1495 2.89781 10.151 2.90553H9.9844C9.98286 2.9009 9.97668 2.87004 9.97668 2.80987C9.9412 2.86696 9.86714 2.92867 9.74525 2.92867C9.58788 2.92867 9.49068 2.82067 9.49068 2.70187ZM9.7792 2.78827C9.87948 2.78827 9.96588 2.74044 9.96588 2.59387V2.55993L9.76994 2.58924C9.7144 2.5985 9.66965 2.62936 9.66965 2.69107C9.66965 2.74199 9.70823 2.78827 9.7792 2.78827Z" fill="#5A42E6"/>
<path d="M10.5819 1.92427V2.15416H10.7377V2.31307H10.5819V2.66176C10.5819 2.7281 10.6112 2.75587 10.6776 2.75587C10.7022 2.75587 10.7316 2.75124 10.7393 2.7497V2.89781C10.7285 2.90244 10.6945 2.91479 10.6297 2.91479C10.4909 2.91479 10.4045 2.83147 10.4045 2.69107V2.31307H10.2656V2.15416H10.3042C10.3844 2.15416 10.4199 2.10324 10.4199 2.0369V1.92427H10.5819Z" fill="#5A42E6"/>
<path d="M11.0991 2.90553H10.9216V2.15416H11.0991V2.90553ZM10.8939 1.89033C10.8939 1.82553 10.9463 1.77307 11.0096 1.77307C11.0744 1.77307 11.1268 1.82553 11.1268 1.89033C11.1268 1.95513 11.0744 2.00604 11.0096 2.00604C10.9463 2.00604 10.8939 1.95513 10.8939 1.89033Z" fill="#5A42E6"/>
<path d="M11.6601 2.76821C11.7712 2.76821 11.8699 2.68644 11.8699 2.52907C11.8699 2.37324 11.7712 2.29301 11.6601 2.29301C11.5506 2.29301 11.4503 2.37324 11.4503 2.52907C11.4503 2.6849 11.5506 2.76821 11.6601 2.76821ZM11.6601 2.13101C11.8854 2.13101 12.0505 2.29919 12.0505 2.52907C12.0505 2.7605 11.8854 2.92867 11.6601 2.92867C11.4364 2.92867 11.2713 2.7605 11.2713 2.52907C11.2713 2.29919 11.4364 2.13101 11.6601 2.13101Z" fill="#5A42E6"/>
<path d="M12.4024 2.47199V2.90553H12.2234V2.15416H12.3978V2.25444C12.4471 2.16804 12.5366 2.13256 12.6199 2.13256C12.8035 2.13256 12.8915 2.26524 12.8915 2.43033V2.90553H12.7125V2.46119C12.7125 2.36861 12.6708 2.29456 12.5582 2.29456C12.4564 2.29456 12.4024 2.37324 12.4024 2.47199Z" fill="#5A42E6"/>
<path d="M14.194 2.90553H13.5075V1.81164H13.6926V2.72964H14.194V2.90553Z" fill="#5A42E6"/>
<path d="M14.5253 2.90553H14.3478V2.15416H14.5253V2.90553ZM14.3201 1.89033C14.3201 1.82553 14.3725 1.77307 14.4358 1.77307C14.5006 1.77307 14.553 1.82553 14.553 1.89033C14.553 1.95513 14.5006 2.00604 14.4358 2.00604C14.3725 2.00604 14.3201 1.95513 14.3201 1.89033Z" fill="#5A42E6"/>
<path d="M15.0833 2.2961C14.9737 2.2961 14.8765 2.37787 14.8765 2.52907C14.8765 2.68027 14.9737 2.76513 15.0863 2.76513C15.2036 2.76513 15.2576 2.68336 15.2746 2.62627L15.4319 2.68336C15.3965 2.80061 15.2838 2.92867 15.0863 2.92867C14.8657 2.92867 14.6975 2.75741 14.6975 2.52907C14.6975 2.29764 14.8657 2.13101 15.0817 2.13101C15.2838 2.13101 15.3949 2.25753 15.4258 2.37787L15.2653 2.4365C15.2483 2.37016 15.1974 2.2961 15.0833 2.2961Z" fill="#5A42E6"/>
<path d="M15.7083 2.4473H16.0771C16.074 2.35936 16.0153 2.28067 15.8919 2.28067C15.7793 2.28067 15.7145 2.36707 15.7083 2.4473ZM16.0971 2.64324L16.2483 2.69107C16.2082 2.82221 16.0894 2.92867 15.9089 2.92867C15.7052 2.92867 15.5247 2.78056 15.5247 2.52599C15.5247 2.28839 15.7006 2.13101 15.8904 2.13101C16.1218 2.13101 16.2576 2.28376 16.2576 2.52136C16.2576 2.55067 16.2545 2.57536 16.2529 2.57844H15.7037C15.7083 2.69261 15.7978 2.77439 15.9089 2.77439C16.0169 2.77439 16.0724 2.7173 16.0971 2.64324Z" fill="#5A42E6"/>
<path d="M16.6076 2.47199V2.90553H16.4286V2.15416H16.6029V2.25444C16.6523 2.16804 16.7418 2.13256 16.8251 2.13256C17.0087 2.13256 17.0967 2.26524 17.0967 2.43033V2.90553H16.9177V2.46119C16.9177 2.36861 16.876 2.29456 16.7634 2.29456C16.6616 2.29456 16.6076 2.37324 16.6076 2.47199Z" fill="#5A42E6"/>
<path d="M17.2482 2.70187L17.404 2.65867C17.4102 2.72656 17.4611 2.78673 17.5568 2.78673C17.6308 2.78673 17.6694 2.74661 17.6694 2.70033C17.6694 2.66021 17.6416 2.62936 17.5814 2.61701L17.4704 2.59233C17.3377 2.56301 17.2682 2.47661 17.2682 2.37324C17.2682 2.2421 17.3886 2.13101 17.5444 2.13101C17.7542 2.13101 17.8221 2.26679 17.8345 2.34084L17.6833 2.38404C17.6771 2.34084 17.6447 2.27141 17.5444 2.27141C17.4812 2.27141 17.4364 2.31153 17.4364 2.35781C17.4364 2.39793 17.4657 2.42724 17.512 2.4365L17.6262 2.45964C17.7681 2.4905 17.8422 2.5769 17.8422 2.68799C17.8422 2.80216 17.7496 2.92867 17.5583 2.92867C17.3408 2.92867 17.2574 2.78673 17.2482 2.70187Z" fill="#5A42E6"/>
<path d="M18.1401 2.4473H18.5089C18.5058 2.35936 18.4471 2.28067 18.3237 2.28067C18.2111 2.28067 18.1463 2.36707 18.1401 2.4473ZM18.5289 2.64324L18.6801 2.69107C18.64 2.82221 18.5212 2.92867 18.3407 2.92867C18.137 2.92867 17.9565 2.78056 17.9565 2.52599C17.9565 2.28839 18.1324 2.13101 18.3222 2.13101C18.5536 2.13101 18.6894 2.28376 18.6894 2.52136C18.6894 2.55067 18.6863 2.57536 18.6847 2.57844H18.1355C18.1401 2.69261 18.2296 2.77439 18.3407 2.77439C18.4487 2.77439 18.5042 2.7173 18.5289 2.64324Z" fill="#5A42E6"/>
</g>
<defs>
<clipPath id="clip0_245_136">
<rect width="24" height="18" fill="white"/>
</clipPath>
</defs>
</svg>
