<svg width="45" height="45" viewBox="0 0 45 45" fill="none" xmlns="http://www.w3.org/2000/svg">
<rect width="45" height="45" fill="#CCCCCC"/>
<g clip-path="url(#clip0_0_1)">
<rect width="1920" height="1080" transform="translate(-713 -56)" fill="white"/>
<g clip-path="url(#clip1_0_1)">
<rect width="1920" height="2726" transform="translate(-713 -56)" fill="white"/>
<rect width="1920" height="113" transform="translate(-713 -56)" fill="white"/>
<path d="M60.9507 7.5V5.796H63.5427V7.5H60.9507ZM46.6467 7.5C44.2627 7.5 42.4787 7.084 41.2947 6.252C40.1107 5.42 39.5187 4.132 39.5187 2.388C39.5187 2.004 39.5427 1.588 39.5907 1.14C39.6547 0.692 39.7267 0.26 39.8067 -0.156C39.8867 -0.588 39.9587 -0.956 40.0227 -1.26C40.0867 -1.58 40.1267 -1.796 40.1427 -1.908L41.9667 -1.572C41.9187 -1.316 41.8467 -0.964 41.7507 -0.516001C41.6707 -0.0680006 41.5907 0.411999 41.5107 0.924C41.4307 1.436 41.3907 1.924 41.3907 2.388C41.3907 3.188 41.5587 3.844 41.8947 4.356C42.2307 4.852 42.7827 5.22 43.5507 5.46C44.3187 5.684 45.3507 5.796 46.6467 5.796H60.3267L59.0787 6.876V-3.612L60.0627 -2.796H55.9827C55.0547 -2.796 54.3347 -2.684 53.8227 -2.46C53.3267 -2.236 52.9827 -1.812 52.7907 -1.188C52.5987 -0.58 52.5027 0.316 52.5027 1.5C52.5027 2.684 52.5987 3.588 52.7907 4.212C52.9827 4.82 53.3267 5.236 53.8227 5.46C54.3347 5.684 55.0547 5.796 55.9827 5.796V7.02C54.5907 7.02 53.5027 6.852 52.7187 6.516C51.9507 6.164 51.4067 5.588 51.0867 4.788C50.7827 3.972 50.6307 2.876 50.6307 1.5C50.6307 0.124 50.7827 -1.004 51.0867 -1.884C51.4067 -2.78 51.9507 -3.436 52.7187 -3.852C53.5027 -4.284 54.5907 -4.5 55.9827 -4.5H60.9507V7.5H46.6467ZM63.5427 7.5V5.796C63.7507 5.796 63.8787 5.876 63.9267 6.036C63.9907 6.18 64.0227 6.38 64.0227 6.636C64.0227 6.892 63.9907 7.1 63.9267 7.26C63.8787 7.42 63.7507 7.5 63.5427 7.5ZM55.4067 -6.66V-8.82H57.2787V-6.66H55.4067ZM63.5352 7.5V5.796H66.9912L66.1272 6.492V-4.5H67.9992V7.5H63.5352ZM63.5352 7.5C63.3272 7.5 63.1992 7.42 63.1512 7.26C63.0872 7.1 63.0552 6.892 63.0552 6.636C63.0552 6.38 63.0872 6.18 63.1512 6.036C63.1992 5.876 63.3272 5.796 63.5352 5.796V7.5ZM65.9352 -6.66C65.6792 -6.98 65.4792 -7.292 65.3352 -7.596C65.2072 -7.9 65.1432 -8.22 65.1432 -8.556C65.1432 -9.02 65.2552 -9.436 65.4792 -9.804C65.7192 -10.172 66.0312 -10.46 66.4152 -10.668C66.7992 -10.876 67.2152 -10.98 67.6632 -10.98C67.9192 -10.98 68.1752 -10.94 68.4312 -10.86C68.6872 -10.796 68.9112 -10.7 69.1032 -10.572L68.4792 -9.492C68.3512 -9.572 68.2232 -9.62 68.0952 -9.636C67.9832 -9.668 67.8632 -9.684 67.7352 -9.684C67.3672 -9.684 67.0712 -9.58 66.8472 -9.372C66.6392 -9.164 66.5352 -8.892 66.5352 -8.556C66.5352 -8.348 66.5752 -8.148 66.6552 -7.956C66.7512 -7.764 66.8872 -7.556 67.0632 -7.332L65.9352 -6.66ZM64.6872 -6.66V-7.932H69.4152V-6.66H64.6872ZM74.0856 7.5V5.796H77.0136V7.5H74.0856ZM72.2376 7.5V-9.708H74.0856V7.5H72.2376ZM77.0136 7.5V5.796C77.2216 5.796 77.3496 5.876 77.3976 6.036C77.4616 6.18 77.4936 6.38 77.4936 6.636C77.4936 6.892 77.4616 7.1 77.3976 7.26C77.3496 7.42 77.2216 7.5 77.0136 7.5ZM77.0117 7.5V5.796H92.9237L91.1957 7.356V1.716C91.1957 0.708 91.0517 -0.124001 90.7637 -0.780001C90.4917 -1.452 90.0757 -1.956 89.5157 -2.292C88.9717 -2.628 88.2837 -2.796 87.4517 -2.796C86.7477 -2.796 86.0917 -2.676 85.4837 -2.436C84.8917 -2.212 84.3397 -1.908 83.8277 -1.524C83.3157 -1.156 82.8357 -0.74 82.3877 -0.276C81.9557 0.172 81.5557 0.628 81.1877 1.092C80.8197 1.556 80.4837 1.98 80.1797 2.364L79.5557 0.659999C80.0517 0.0359998 80.5557 -0.58 81.0677 -1.188C81.5797 -1.796 82.1397 -2.348 82.7477 -2.844C83.3557 -3.34 84.0437 -3.74 84.8117 -4.044C85.5797 -4.348 86.4597 -4.5 87.4517 -4.5C88.5877 -4.5 89.5157 -4.308 90.2357 -3.924C90.9717 -3.54 91.5397 -3.028 91.9397 -2.388C92.3557 -1.764 92.6437 -1.092 92.8037 -0.372C92.9637 0.348 93.0437 1.044 93.0437 1.716V7.5H77.0117ZM78.5957 5.796V-9.708H80.4677V5.796H78.5957ZM77.0117 7.5C76.8037 7.5 76.6757 7.42 76.6277 7.26C76.5637 7.1 76.5317 6.892 76.5317 6.636C76.5317 6.38 76.5637 6.18 76.6277 6.036C76.6757 5.876 76.8037 5.796 77.0117 5.796V7.5ZM85.1477 -6.66V-8.82H87.0197V-6.66H85.1477ZM106.128 7.5V5.796H108.72V7.5H106.128ZM100.44 12.804C99.8797 12.804 99.2797 12.756 98.6397 12.66C98.0157 12.58 97.3277 12.46 96.5757 12.3L96.8637 10.788C97.7117 10.9 98.4157 10.98 98.9757 11.028C99.5517 11.076 100.04 11.1 100.44 11.1C101.768 11.1 102.736 10.844 103.344 10.332C103.952 9.836 104.256 9.108 104.256 8.148V-3.42L105.216 -2.796H101.16C100.232 -2.796 99.5117 -2.684 98.9997 -2.46C98.5037 -2.236 98.1597 -1.812 97.9677 -1.188C97.7757 -0.58 97.6797 0.316 97.6797 1.5C97.6797 2.684 97.7757 3.588 97.9677 4.212C98.1597 4.82 98.5037 5.236 98.9997 5.46C99.5117 5.684 100.232 5.796 101.16 5.796H104.256V7.5H101.16C99.7677 7.5 98.6797 7.292 97.8957 6.876C97.1277 6.444 96.5837 5.788 96.2637 4.908C95.9597 4.012 95.8077 2.876 95.8077 1.5C95.8077 0.124 95.9597 -1.004 96.2637 -1.884C96.5837 -2.78 97.1277 -3.436 97.8957 -3.852C98.6797 -4.284 99.7677 -4.5 101.16 -4.5H106.128V8.124C106.128 9.116 105.896 9.964 105.432 10.668C104.984 11.372 104.336 11.9 103.488 12.252C102.64 12.62 101.624 12.804 100.44 12.804ZM108.72 7.5V5.796C108.928 5.796 109.056 5.876 109.104 6.036C109.168 6.18 109.2 6.38 109.2 6.636C109.2 6.892 109.168 7.1 109.104 7.26C109.056 7.42 108.928 7.5 108.72 7.5ZM111.627 7.5V-9.708H113.499V7.5H111.627ZM108.723 7.5V5.796H111.627V7.5H108.723ZM108.723 7.5C108.515 7.5 108.387 7.42 108.339 7.26C108.275 7.1 108.243 6.892 108.243 6.636C108.243 6.38 108.275 6.18 108.339 6.036C108.387 5.876 108.515 5.796 108.723 5.796V7.5ZM117.636 7.5V-9.708H119.484V7.5H117.636Z" fill="#0B1F51"/>
</g>
<rect x="-681" y="-24" width="750" height="120" rx="16" fill="#EFECFC"/>
<g clip-path="url(#clip2_0_1)">
<mask id="path-3-inside-1_0_1" fill="white">
<path d="M43.0762 18.0316C42.1422 17.1275 41.2064 16.2167 40.2689 15.2991C40.2426 14.0282 40.2095 12.7579 40.1696 11.4882C40.1169 9.7875 39.3786 8.16504 38.1209 6.90468C36.8632 5.64433 35.2319 4.91396 33.5295 4.86034C32.2568 4.82109 30.9842 4.78827 29.7115 4.76191C28.7939 3.82792 27.8843 2.89511 26.9825 1.96347C25.7617 0.713661 24.1814 0.01493 22.5001 0.0158089C20.8187 0.0166878 19.2376 0.718935 18.0247 1.96347C17.1183 2.89687 16.2057 3.83173 15.2869 4.76806C14.0143 4.79384 12.7419 4.82665 11.4698 4.8665C7.96474 4.98603 4.94834 7.99804 4.82881 11.4935C4.78955 12.7644 4.75644 14.0347 4.72949 15.3044C3.79199 16.2214 2.85625 17.1319 1.92227 18.036C0.675098 19.2481 -0.0253906 20.8301 -0.0253906 22.5C-0.0253906 24.1699 0.670703 25.752 1.92227 26.9684C2.85625 27.8719 3.79375 28.7816 4.73476 29.6974C4.75996 30.9683 4.79277 32.2395 4.8332 33.511C4.88682 35.2143 5.62422 36.8323 6.88105 38.0945C8.13789 39.3566 9.76826 40.0852 11.4733 40.1379C12.746 40.1783 14.0186 40.2115 15.2913 40.2372C16.2089 41.1706 17.1203 42.1029 18.0256 43.0339C19.2411 44.2837 20.8231 44.9825 22.508 44.9816C24.1929 44.9807 25.7705 44.2837 26.9904 43.0348C27.8957 42.102 28.8074 41.168 29.7256 40.2328C30.9982 40.2065 32.2706 40.1734 33.5427 40.1335C37.0469 40.0149 40.0633 37.0029 40.1828 33.5066C40.2226 32.2368 40.2555 30.9671 40.2812 29.6974C41.2187 28.7798 42.1548 27.869 43.0893 26.9649C44.3365 25.7537 45.037 24.1734 45.037 22.4974C45.037 20.8213 44.3251 19.2481 43.0762 18.0316Z"/>
</mask>
<path d="M43.0762 18.0316C42.1422 17.1275 41.2064 16.2167 40.2689 15.2991C40.2426 14.0282 40.2095 12.7579 40.1696 11.4882C40.1169 9.7875 39.3786 8.16504 38.1209 6.90468C36.8632 5.64433 35.2319 4.91396 33.5295 4.86034C32.2568 4.82109 30.9842 4.78827 29.7115 4.76191C28.7939 3.82792 27.8843 2.89511 26.9825 1.96347C25.7617 0.713661 24.1814 0.01493 22.5001 0.0158089C20.8187 0.0166878 19.2376 0.718935 18.0247 1.96347C17.1183 2.89687 16.2057 3.83173 15.2869 4.76806C14.0143 4.79384 12.7419 4.82665 11.4698 4.8665C7.96474 4.98603 4.94834 7.99804 4.82881 11.4935C4.78955 12.7644 4.75644 14.0347 4.72949 15.3044C3.79199 16.2214 2.85625 17.1319 1.92227 18.036C0.675098 19.2481 -0.0253906 20.8301 -0.0253906 22.5C-0.0253906 24.1699 0.670703 25.752 1.92227 26.9684C2.85625 27.8719 3.79375 28.7816 4.73476 29.6974C4.75996 30.9683 4.79277 32.2395 4.8332 33.511C4.88682 35.2143 5.62422 36.8323 6.88105 38.0945C8.13789 39.3566 9.76826 40.0852 11.4733 40.1379C12.746 40.1783 14.0186 40.2115 15.2913 40.2372C16.2089 41.1706 17.1203 42.1029 18.0256 43.0339C19.2411 44.2837 20.8231 44.9825 22.508 44.9816C24.1929 44.9807 25.7705 44.2837 26.9904 43.0348C27.8957 42.102 28.8074 41.168 29.7256 40.2328C30.9982 40.2065 32.2706 40.1734 33.5427 40.1335C37.0469 40.0149 40.0633 37.0029 40.1828 33.5066C40.2226 32.2368 40.2555 30.9671 40.2812 29.6974C41.2187 28.7798 42.1548 27.869 43.0893 26.9649C44.3365 25.7537 45.037 24.1734 45.037 22.4974C45.037 20.8213 44.3251 19.2481 43.0762 18.0316Z" fill="#5A42E6" fill-opacity="0.35" stroke="#5A42E6" stroke-width="4" mask="url(#path-3-inside-1_0_1)"/>
<mask id="path-4-inside-2_0_1" fill="white">
<path d="M33.7011 19.6497C29.906 23.5933 26.0502 27.6249 22.2586 31.6239C21.9507 31.9502 21.5795 32.2102 21.1677 32.3882C20.7559 32.5663 20.3122 32.6585 19.8636 32.6593H19.8486C19.4002 32.6563 18.9569 32.5636 18.5448 32.3867C18.1328 32.2098 17.7602 31.9522 17.4492 31.6292C15.4219 29.5356 13.3881 27.4497 11.3478 25.3714C11.0393 25.0611 10.7959 24.6924 10.6319 24.2867C10.468 23.8811 10.3867 23.4468 10.3929 23.0093C10.3991 22.5718 10.4927 22.14 10.6682 21.7392C10.8436 21.3384 11.0974 20.9767 11.4146 20.6754C12.0538 20.0578 12.911 19.7175 13.7998 19.7285C14.6886 19.7395 15.5371 20.101 16.1607 20.7343C17.373 21.977 18.5868 23.2233 19.8021 24.4731C22.8123 21.3187 25.8375 18.145 28.8152 15.0214C30.0791 13.6916 32.1876 13.6696 33.5429 14.9528C34.8982 16.236 34.9746 18.3269 33.7011 19.6497Z"/>
</mask>
<path d="M33.7011 19.6497C29.906 23.5933 26.0502 27.6249 22.2586 31.6239C21.9507 31.9502 21.5795 32.2102 21.1677 32.3882C20.7559 32.5663 20.3122 32.6585 19.8636 32.6593H19.8486C19.4002 32.6563 18.9569 32.5636 18.5448 32.3867C18.1328 32.2098 17.7602 31.9522 17.4492 31.6292C15.4219 29.5356 13.3881 27.4497 11.3478 25.3714C11.0393 25.0611 10.7959 24.6924 10.6319 24.2867C10.468 23.8811 10.3867 23.4468 10.3929 23.0093C10.3991 22.5718 10.4927 22.14 10.6682 21.7392C10.8436 21.3384 11.0974 20.9767 11.4146 20.6754C12.0538 20.0578 12.911 19.7175 13.7998 19.7285C14.6886 19.7395 15.5371 20.101 16.1607 20.7343C17.373 21.977 18.5868 23.2233 19.8021 24.4731C22.8123 21.3187 25.8375 18.145 28.8152 15.0214C30.0791 13.6916 32.1876 13.6696 33.5429 14.9528C34.8982 16.236 34.9746 18.3269 33.7011 19.6497Z" fill="white" stroke="#5A42E6" stroke-width="4" mask="url(#path-4-inside-2_0_1)"/>
</g>
</g>
<defs>
<clipPath id="clip0_0_1">
<rect width="1920" height="1080" fill="white" transform="translate(-713 -56)"/>
</clipPath>
<clipPath id="clip1_0_1">
<rect width="1920" height="2726" fill="white" transform="translate(-713 -56)"/>
</clipPath>
<clipPath id="clip2_0_1">
<rect width="45" height="45" fill="white"/>
</clipPath>
</defs>
</svg>
