<svg width="24" height="25" viewBox="0 0 24 25" fill="none" xmlns="http://www.w3.org/2000/svg">
<path d="M24 23.0002C24 23.8287 23.3284 24.5002 22.5 24.5002H1.5C0.671578 24.5002 0 23.8287 0 23.0002C0 22.1718 0.671578 21.5002 1.5 21.5002H22.5C23.3284 21.5002 24 22.1718 24 23.0002ZM6.68545 8.81483C7.06931 8.81483 7.45322 8.66839 7.74609 8.37547L10.5 5.62156V17.1878C10.5 18.0162 11.1716 18.6878 12 18.6878C12.8284 18.6878 13.5 18.0162 13.5 17.1878V5.62156L16.2539 8.37547C16.8397 8.96126 17.7894 8.96126 18.3752 8.37547C18.961 7.78967 18.961 6.83994 18.3752 6.25414L13.0606 0.939592C12.4748 0.353795 11.5251 0.353795 10.9393 0.939592L5.62477 6.25414C5.03897 6.83994 5.03897 7.78967 5.62477 8.37547C5.91769 8.66839 6.30155 8.81483 6.68545 8.81483Z" fill="#5A42E6"/>
</svg>
